<?xml version="1.0" encoding="utf-8"?>
<svg version="1.1" id="Layer_1" xmlns="http://www.w3.org/2000/svg" 
    xmlns:xlink="http://www.w3.org/1999/xlink" x="0px" y="0px"
    width="1431.6px" height="500px" viewBox="0 0 1431.6 500" 
    style="enable-background:new 0 0 1431.6 500;" xml:space="preserve">

<style type="text/css">
    .st0{fill:none;stroke:#007BFF;stroke-width:18.3989;stroke-linecap:round;stroke-linejoin:round;stroke-miterlimit:10;}
    .st1{fill:none;stroke:#007BFF;stroke-width:18.3989;stroke-linecap:round;stroke-linejoin:round;stroke-miterlimit:10;}
    .st2{fill:#007BFF;}
</style>

<g id="Layer_3">
    <g>
        <g>
            <path class="st0" d="M1057.6,136.5c-0.4,0-0.8,0.1-1.1,0.2l0.5,0.5l0,0C1057.1,137,1057.4,136.7,1057.6,136.5L1057.6,136.5z"/>
            <path class="st0" d="M1212.6,186.3c0.7,0.7,1.4,1.4,2.1,2.2l58-59.6c-26.9-26-63.9-41.6-105.2-40.6c-42.5,1-81.3,19.3-109.7,47.9
                c-0.1,0.1-0.1,0.1-0.1,0.2C1108.3,125.9,1167.5,143.1,1212.6,186.3z"/>
            <path class="st0" d="M1057.5,137.8c-11.4,51.7,7.2,112.6,53.1,157.6l51.4-52.7L1057.5,137.8z"/>
            <path class="st0" d="M1057.8,136.4c-0.1,0.5-0.2,0.9-0.3,1.4L1162,242.6l52.7-54.1c-0.7-0.7-1.4-1.5-2.1-2.2
                C1167.5,143.1,1108.3,125.9,1057.8,136.4z"/>
            <path class="st0" d="M1057.8,136.4c-0.1,0-0.1,0-0.2,0.1c-0.2,0.2-0.5,0.5-0.7,0.7l0.6,0.6C1057.5,137.3,1057.7,136.9,1057.8,136.4z"/>
            <path class="st0" d="M1057.8,136.2c-0.1,0.1-0.2,0.2-0.3,0.3c0.1,0,0.1,0,0.2-0.1C1057.8,136.4,1057.8,136.3,1057.8,136.2z"/>
            <path class="st0" d="M1057.5,137.8l-0.6-0.6c-27.3,28.1-44.6,65.9-45.5,107.2c-1,42.8,15.8,81.1,43.5,108.1l55.7-57.2
                C1064.7,250.3,1046.1,189.5,1057.5,137.8z"/>
            <line class="st0" x1="1207" y1="92.6" x2="1017.1" y2="289.5"/>
        </g>
        <g>
            <path class="st1" d="M1131.6,313.5c0.5,0.5,0.9,1,1.4,1.4c44.8,43,103.6,60.2,153.9,50.1L1183,260.8L1131.6,313.5z"/>
            <path class="st1" d="M1286.9,365c0.3,0,0.6-0.1,0.9-0.2c12-51.8-6.3-112.9-52.1-158.2l-52.7,54.1L1286.9,365z"/>
            <path class="st1" d="M1287.7,365.8c0.1-0.3,0.2-0.6,0.2-0.9c-0.3,0.1-0.6,0.1-0.9,0.2L1287.7,365.8z"/>
            <path class="st1" d="M1287.7,365.8l0.7,0.7c0.8-0.8,1.6-1.5,2.4-2.3c-1,0.2-2,0.4-2.9,0.6C1287.8,365.1,1287.7,365.5,1287.7,365.8z"/>
            <path class="st1" d="M1287.2,367.7c0.4-0.4,0.8-0.8,1.2-1.2l-0.7-0.7C1287.5,366.4,1287.3,367,1287.2,367.7z"/>
            <path class="st1" d="M1293.8,147l-58,59.6c45.8,45.3,64.1,106.5,52.1,158.2c1-0.2,2-0.4,2.9-0.6c28.1-28.2,46-66.7,46.9-108.7
                C1338.7,212.5,1321.8,174.1,1293.8,147z"/>
            <path class="st1" d="M1286.9,365c-50.3,10.1-109.1-7.1-153.9-50.1c-0.5-0.5-0.9-1-1.4-1.4l-55.7,57.2
                c26.9,26.2,64.1,41.9,105.6,41c40.5-0.9,77.7-17.6,105.7-44c0.2-0.6,0.3-1.3,0.5-1.9L1286.9,365z"/>
            <line class="st1" x1="1332.7" y1="213.5" x2="1141.8" y2="407.3"/>
        </g>
        <g>
            <path class="st2" d="M163.1,324.8h-22.9l-20.9-27.5h-6.7v27.5H93.8v-74.9H124c4.2,0,7.8,0.3,10.9,0.8c3.1,0.5,5.9,1.6,8.6,3.2
                c2.7,1.7,4.8,3.9,6.4,6.5c1.6,2.6,2.4,6,2.4,10c0,5.7-1.3,10.4-3.9,14c-2.6,3.6..."/>
        </g>
    </g>
</g>
</svg>
